<?xml version="1.0"?><svg width="793.7007874015749" height="1122.5196850393702" xmlns="http://www.w3.org/2000/svg">
 <metadata id="metadata7">image/svg+xml</metadata>

 <g>
  <title>Layer 1</title>
  <path fill="#5b0d0d" fill-rule="nonzero" stroke="#230c0c" stroke-width="18.803326" stroke-linecap="round" stroke-linejoin="round" stroke-miterlimit="4" stroke-dashoffset="0" id="rect1305" d="m294.566986,581.103577l169.322113,0c0,0 -83.540802,231.616516 31.809448,300.86969c-136.474457,-42.079895 15.904724,71.571228 -108.518127,13.253906c2.486664,-15.904724 -23.734009,-41.417175 -129.724426,-2.650818c127.211517,-117.220398 37.110992,-311.472778 37.110992,-311.472778z"/>
  <path fill="#00ff00" fill-rule="nonzero" stroke="#165822" stroke-width="18.803326" stroke-linecap="round" stroke-linejoin="round" stroke-miterlimit="4" stroke-dashoffset="0" id="path2035" d="m415.507996,154.172134c-73.280701,0 -137.996124,26.468384 -177.456024,66.898895c-115.24118,4.037369 -207.141371,73.200546 -207.141361,158.065048c0,49.472351 31.24305,93.643616 80.101879,122.705017c5.7537,84.391815 120.978157,151.820038 262.177544,151.820038c144.87204,0 262.434235,-70.978455 262.434174,-158.43576c0,-0.431488 -0.079834,-0.85257 -0.08551,-1.283234c41.550598,-18.814606 67.811401,-45.894836 67.811401,-76.109619c0,-31.545074 -28.508972,-59.756317 -73.286499,-78.619049c2.036682,-8.650513 3.136719,-17.524872 3.136719,-26.605591c0,-87.457291 -97.521973,-158.435745 -217.692322,-158.435745z"/>
 </g>
</svg>