<svg id="svg" version="1.1" xmlns="http://www.w3.org/2000/svg" xmlns:xlink="http://www.w3.org/1999/xlink" width="400" height="434.375" viewBox="0, 0, 400,434.375"><g id="svgg"><path id="path0" d="M198.662 1.131 C 198.298 1.534,198.000 2.074,198.000 2.331 C 198.000 2.589,197.820 2.800,197.600 2.800 C 197.380 2.800,197.200 3.062,197.200 3.382 C 197.200 3.910,195.818 6.278,194.806 7.483 C 194.583 7.749,194.400 8.254,194.400 8.607 C 194.400 8.959,194.215 9.133,193.990 8.994 C 193.764 8.854,193.386 9.293,193.151 9.970 C 192.915 10.646,192.559 11.200,192.361 11.200 C 192.162 11.200,192.000 11.538,192.000 11.951 C 192.000 12.364,191.721 12.934,191.380 13.216 C 191.039 13.499,190.401 14.520,189.961 15.485 C 189.522 16.450,188.900 17.340,188.581 17.463 C 188.261 17.585,188.000 17.987,188.000 18.354 C 188.000 18.722,187.640 19.283,187.200 19.600 C 186.760 19.917,186.400 20.497,186.400 20.888 C 186.400 21.280,186.220 21.600,186.000 21.600 C 185.780 21.600,185.600 21.920,185.600 22.312 C 185.600 22.703,185.240 23.283,184.800 23.600 C 184.360 23.917,184.000 24.431,184.000 24.741 C 184.000 25.052,183.684 25.597,183.297 25.953 C 182.911 26.309,182.334 27.140,182.015 27.800 C 181.696 28.460,181.173 29.316,180.853 29.703 C 180.181 30.515,179.588 31.519,178.377 33.900 C 177.901 34.835,177.379 35.600,177.217 35.600 C 177.054 35.600,176.597 36.320,176.200 37.200 C 175.803 38.080,175.326 38.800,175.139 38.800 C 174.953 38.800,174.800 39.160,174.800 39.600 C 174.800 40.040,174.620 40.400,174.400 40.400 C 174.180 40.400,174.000 40.636,174.000 40.925 C 174.000 41.213,173.640 41.836,173.200 42.308 C 172.760 42.780,172.400 43.450,172.400 43.796 C 172.400 44.142,172.125 44.531,171.788 44.660 C 171.452 44.789,170.831 45.654,170.408 46.582 C 169.986 47.510,169.361 48.501,169.020 48.784 C 168.679 49.066,168.400 49.666,168.400 50.116 C 168.400 50.565,168.289 50.822,168.152 50.686 C 167.847 50.381,166.800 51.381,166.800 51.977 C 166.800 52.547,165.955 54.035,165.200 54.796 C 164.870 55.128,164.542 55.670,164.470 56.000 C 164.399 56.330,164.020 56.960,163.628 57.400 C 163.237 57.840,162.497 58.965,161.984 59.900 C 161.472 60.835,160.895 61.600,160.703 61.600 C 160.510 61.600,160.467 61.785,160.607 62.012 C 160.747 62.238,160.308 63.055,159.631 63.826 C 158.954 64.597,158.400 65.542,158.400 65.926 C 158.400 66.309,158.040 66.883,157.600 67.200 C 157.160 67.517,156.800 68.057,156.800 68.400 C 156.800 68.743,156.440 69.283,156.000 69.600 C 155.560 69.917,155.200 70.497,155.200 70.888 C 155.200 71.280,155.020 71.600,154.800 71.600 C 154.580 71.600,154.400 71.920,154.400 72.312 C 154.400 72.703,154.040 73.283,153.600 73.600 C 153.160 73.917,152.800 74.495,152.800 74.885 C 152.800 75.274,152.440 75.818,152.000 76.093 C 151.560 76.368,151.200 76.920,151.200 77.320 C 151.200 77.720,151.020 77.936,150.800 77.800 C 150.580 77.664,150.400 77.884,150.400 78.288 C 150.400 78.693,150.040 79.283,149.600 79.600 C 149.160 79.917,148.800 80.495,148.800 80.885 C 148.800 81.274,148.440 81.818,148.000 82.093 C 147.560 82.368,147.200 82.909,147.200 83.296 C 147.200 83.683,147.020 84.000,146.800 84.000 C 146.580 84.000,146.400 84.347,146.400 84.771 C 146.400 85.196,146.130 85.813,145.800 86.143 C 145.470 86.473,145.200 86.995,145.200 87.304 C 145.200 87.612,144.750 88.106,144.200 88.400 C 143.650 88.694,143.200 89.178,143.200 89.476 C 143.200 89.773,142.750 90.729,142.200 91.600 C 141.650 92.471,141.200 93.366,141.200 93.589 C 141.200 93.811,140.840 94.218,140.400 94.493 C 139.960 94.768,139.600 95.309,139.600 95.696 C 139.600 96.083,139.420 96.400,139.200 96.400 C 138.980 96.400,138.800 96.720,138.800 97.112 C 138.800 97.503,138.440 98.083,138.000 98.400 C 137.560 98.717,137.200 99.257,137.200 99.600 C 137.200 99.943,136.840 100.483,136.400 100.800 C 135.960 101.117,135.600 101.697,135.600 102.088 C 135.600 102.480,135.420 102.800,135.200 102.800 C 134.980 102.800,134.800 103.120,134.800 103.512 C 134.800 103.903,134.440 104.483,134.000 104.800 C 133.560 105.117,133.200 105.654,133.200 105.992 C 133.200 106.331,132.840 106.832,132.400 107.107 C 131.960 107.382,131.600 107.965,131.600 108.403 C 131.600 108.842,131.420 109.200,131.200 109.200 C 130.980 109.200,130.800 109.372,130.800 109.582 C 130.800 109.950,129.245 112.484,128.406 113.483 C 128.183 113.749,128.000 114.244,128.000 114.583 C 128.000 114.922,127.730 115.200,127.400 115.200 C 127.070 115.200,126.800 115.547,126.800 115.971 C 126.800 116.396,126.530 117.013,126.200 117.343 C 125.870 117.673,125.600 118.160,125.600 118.425 C 125.600 118.689,125.285 119.199,124.900 119.557 C 124.038 120.359,123.200 121.813,123.200 122.506 C 123.200 122.791,122.840 123.283,122.400 123.600 C 121.960 123.917,121.600 124.405,121.600 124.685 C 121.600 124.964,121.240 125.418,120.800 125.693 C 120.360 125.968,120.000 126.391,120.000 126.635 C 120.000 127.318,118.852 129.459,118.192 130.007 C 117.866 130.277,117.600 130.663,117.600 130.866 C 117.600 131.068,117.240 131.620,116.800 132.092 C 116.360 132.564,116.000 133.187,116.000 133.475 C 116.000 133.764,115.820 134.000,115.600 134.000 C 115.380 134.000,115.200 134.360,115.200 134.800 C 115.200 135.240,115.009 135.600,114.776 135.600 C 114.543 135.600,114.452 135.761,114.574 135.958 C 114.696 136.155,114.526 136.419,114.198 136.546 C 113.869 136.672,113.600 137.023,113.600 137.325 C 113.600 137.628,113.250 138.193,112.823 138.579 C 112.395 138.966,111.931 139.806,111.790 140.445 C 111.650 141.084,111.209 141.781,110.810 141.995 C 110.411 142.208,109.895 142.927,109.663 143.592 C 109.431 144.256,109.052 144.800,108.821 144.800 C 108.589 144.800,108.400 145.160,108.400 145.600 C 108.400 146.040,108.220 146.400,108.000 146.400 C 107.780 146.400,107.600 146.720,107.600 147.112 C 107.600 147.503,107.240 148.083,106.800 148.400 C 106.360 148.717,106.000 149.257,106.000 149.600 C 106.000 149.943,105.640 150.483,105.200 150.800 C 104.760 151.117,104.400 151.697,104.400 152.088 C 104.400 152.480,104.220 152.800,104.000 152.800 C 103.780 152.800,103.600 153.160,103.600 153.600 C 103.600 154.040,103.450 154.400,103.268 154.400 C 103.085 154.400,102.680 154.895,102.368 155.500 C 102.055 156.105,101.485 156.835,101.100 157.123 C 100.715 157.410,100.400 157.905,100.400 158.223 C 100.400 158.540,100.220 158.800,100.000 158.800 C 99.780 158.800,99.600 159.160,99.600 159.600 C 99.600 160.040,99.420 160.400,99.200 160.400 C 98.980 160.400,98.800 160.670,98.800 161.000 C 98.800 161.330,98.620 161.600,98.400 161.600 C 98.180 161.600,98.000 161.804,98.000 162.053 C 98.000 162.302,97.628 162.829,97.174 163.223 C 96.719 163.617,96.366 164.088,96.389 164.270 C 96.462 164.841,95.095 167.600,94.739 167.600 C 94.553 167.600,94.397 167.825,94.393 168.100 C 94.389 168.375,93.929 169.034,93.370 169.564 C 92.812 170.094,92.254 171.030,92.131 171.643 C 92.009 172.257,91.569 173.066,91.154 173.442 C 90.739 173.817,90.400 174.284,90.400 174.479 C 90.400 174.674,90.040 175.220,89.600 175.692 C 89.160 176.164,88.800 176.787,88.800 177.075 C 88.800 177.364,88.620 177.600,88.400 177.600 C 88.180 177.600,88.000 177.920,88.000 178.312 C 88.000 178.703,87.640 179.283,87.200 179.600 C 86.760 179.917,86.400 180.457,86.400 180.800 C 86.400 181.143,86.040 181.683,85.600 182.000 C 85.160 182.317,84.800 182.897,84.800 183.288 C 84.800 183.680,84.620 184.000,84.400 184.000 C 84.180 184.000,84.000 184.345,84.000 184.767 C 84.000 185.188,83.865 185.593,83.700 185.667 C 83.085 185.940,80.911 189.059,80.191 190.700 C 79.781 191.635,79.323 192.400,79.172 192.400 C 79.021 192.400,78.673 192.940,78.400 193.600 C 78.127 194.260,77.655 194.800,77.351 194.800 C 77.048 194.800,76.800 195.064,76.800 195.386 C 76.800 196.199,75.524 198.800,75.126 198.800 C 74.947 198.800,74.800 199.094,74.800 199.453 C 74.800 199.812,74.485 200.399,74.100 200.757 C 73.238 201.559,72.400 203.013,72.400 203.706 C 72.400 203.991,72.040 204.483,71.600 204.800 C 71.160 205.117,70.800 205.607,70.800 205.888 C 70.800 206.170,70.641 206.400,70.447 206.400 C 70.253 206.400,69.619 207.371,69.038 208.559 C 68.457 209.746,67.716 210.938,67.391 211.208 C 67.066 211.477,66.800 211.863,66.800 212.066 C 66.800 212.268,66.440 212.820,66.000 213.292 C 65.560 213.764,65.200 214.387,65.200 214.675 C 65.200 214.964,65.020 215.200,64.800 215.200 C 64.580 215.200,64.400 215.560,64.400 216.000 C 64.400 216.440,64.241 216.800,64.046 216.800 C 63.851 216.800,63.387 217.441,63.015 218.224 C 62.644 219.007,62.095 219.742,61.795 219.857 C 61.496 219.972,61.348 220.320,61.467 220.630 C 61.586 220.940,61.395 221.304,61.044 221.439 C 60.692 221.573,60.503 221.843,60.624 222.039 C 60.744 222.234,60.397 222.839,59.853 223.384 C 59.308 223.929,58.746 224.740,58.604 225.187 C 58.462 225.634,58.178 226.000,57.973 226.000 C 57.768 226.000,57.600 226.360,57.600 226.800 C 57.600 227.240,57.420 227.600,57.200 227.600 C 56.980 227.600,56.800 227.920,56.800 228.312 C 56.800 228.703,56.440 229.283,56.000 229.600 C 55.560 229.917,55.200 230.431,55.200 230.741 C 55.200 231.052,54.885 231.599,54.500 231.957 C 53.600 232.795,52.800 234.222,52.800 234.991 C 52.800 235.322,52.440 235.818,52.000 236.093 C 51.560 236.368,51.200 236.866,51.200 237.200 C 51.200 237.534,50.840 238.032,50.400 238.307 C 49.960 238.582,49.600 239.075,49.600 239.403 C 49.600 239.732,49.420 240.000,49.200 240.000 C 48.980 240.000,48.821 240.135,48.847 240.300 C 49.004 241.295,48.700 241.978,48.000 242.200 C 47.560 242.340,47.200 242.802,47.200 243.227 C 47.200 243.652,47.009 244.000,46.776 244.000 C 46.543 244.000,46.464 244.180,46.600 244.400 C 46.736 244.620,46.567 244.800,46.224 244.800 C 45.881 244.800,45.630 244.935,45.666 245.100 C 45.828 245.841,44.999 247.864,44.271 248.503 C 43.422 249.249,42.940 250.007,41.645 252.635 C 41.202 253.534,40.561 254.501,40.220 254.784 C 39.879 255.066,39.600 255.544,39.600 255.846 C 39.600 256.147,39.240 256.618,38.800 256.893 C 38.360 257.168,38.000 257.709,38.000 258.096 C 38.000 258.483,37.820 258.800,37.600 258.800 C 37.380 258.800,37.200 259.120,37.200 259.512 C 37.200 259.903,36.840 260.483,36.400 260.800 C 35.960 261.117,35.600 261.657,35.600 262.000 C 35.600 262.343,35.240 262.883,34.800 263.200 C 34.360 263.517,34.000 264.097,34.000 264.488 C 34.000 264.880,33.820 265.200,33.600 265.200 C 33.380 265.200,33.200 265.500,33.200 265.866 C 33.200 266.233,32.931 266.818,32.602 267.166 C 31.213 268.638,30.079 270.307,29.386 271.900 C 28.979 272.835,28.501 273.600,28.323 273.600 C 28.145 273.600,28.000 273.960,28.000 274.400 C 28.000 274.840,27.763 275.200,27.474 275.200 C 26.947 275.200,25.600 277.590,25.600 278.525 C 25.600 278.799,25.240 279.283,24.800 279.600 C 24.360 279.917,24.000 280.454,24.000 280.792 C 24.000 281.131,23.640 281.632,23.200 281.907 C 22.760 282.182,22.400 282.765,22.400 283.203 C 22.400 283.642,22.220 284.000,22.000 284.000 C 21.780 284.000,21.600 284.283,21.600 284.629 C 21.600 285.374,20.603 286.469,20.248 286.114 C 20.111 285.978,20.000 286.235,20.000 286.684 C 20.000 287.134,19.721 287.734,19.380 288.016 C 19.039 288.299,18.418 289.282,18.000 290.200 C 17.582 291.118,16.961 292.101,16.620 292.384 C 16.279 292.666,16.000 293.124,16.000 293.400 C 16.000 293.676,15.721 294.134,15.380 294.416 C 15.039 294.699,14.401 295.720,13.961 296.685 C 13.522 297.650,12.900 298.540,12.581 298.663 C 12.261 298.785,12.000 299.187,12.000 299.554 C 12.000 299.922,11.656 300.471,11.236 300.774 C 10.816 301.076,10.566 301.566,10.679 301.862 C 10.793 302.158,10.677 302.400,10.422 302.400 C 10.167 302.400,9.770 302.940,9.540 303.600 C 9.310 304.260,8.959 304.800,8.761 304.800 C 8.562 304.800,8.400 305.120,8.400 305.512 C 8.400 305.903,8.040 306.483,7.600 306.800 C 7.160 307.117,6.800 307.697,6.800 308.088 C 6.800 308.480,6.620 308.800,6.400 308.800 C 6.180 308.800,6.000 309.120,6.000 309.512 C 6.000 309.903,5.640 310.483,5.200 310.800 C 4.760 311.117,4.400 311.657,4.400 312.000 C 4.400 312.343,4.040 312.883,3.600 313.200 C 3.160 313.517,2.800 314.097,2.800 314.488 C 2.800 314.880,2.620 315.200,2.400 315.200 C 2.180 315.200,2.000 315.494,2.000 315.853 C 2.000 316.212,1.624 316.832,1.165 317.230 C 0.691 317.641,0.238 318.639,0.118 319.536 L -0.094 321.117 199.953 321.116 L 400.000 321.116 400.000 320.047 C 400.000 319.137,399.205 317.501,398.423 316.800 C 397.983 316.406,397.200 314.801,397.200 314.294 C 397.200 314.009,396.840 313.517,396.400 313.200 C 395.960 312.883,395.600 312.343,395.600 312.000 C 395.600 311.657,395.240 311.117,394.800 310.800 C 394.360 310.483,394.000 309.903,394.000 309.512 C 394.000 309.120,393.820 308.800,393.600 308.800 C 393.380 308.800,393.200 308.480,393.200 308.088 C 393.200 307.697,392.840 307.117,392.400 306.800 C 391.960 306.483,391.600 305.914,391.600 305.535 C 391.600 305.157,391.425 304.739,391.211 304.607 C 390.997 304.474,390.513 303.699,390.137 302.883 C 389.761 302.067,388.811 300.590,388.026 299.600 C 386.356 297.492,385.600 296.213,385.600 295.494 C 385.600 295.209,385.240 294.717,384.800 294.400 C 384.360 294.083,384.000 293.569,384.000 293.259 C 384.000 292.948,383.676 292.403,383.280 292.047 C 382.883 291.691,382.257 290.750,381.887 289.955 C 381.517 289.160,380.941 288.283,380.607 288.006 C 380.273 287.729,380.000 287.256,380.000 286.954 C 380.000 286.653,379.640 286.182,379.200 285.907 C 378.760 285.632,378.400 285.091,378.400 284.704 C 378.400 284.317,378.220 284.000,378.000 284.000 C 377.780 284.000,377.600 283.642,377.600 283.203 C 377.600 282.765,377.240 282.182,376.800 281.907 C 376.360 281.632,376.000 281.173,376.000 280.887 C 376.000 280.601,375.815 280.149,375.589 279.883 C 374.877 279.045,371.273 273.073,370.408 271.300 C 369.953 270.365,369.413 269.600,369.209 269.600 C 369.005 269.600,368.539 268.970,368.173 268.200 C 367.808 267.430,367.349 266.800,367.154 266.800 C 366.959 266.800,366.800 266.440,366.800 266.000 C 366.800 265.560,366.620 265.200,366.400 265.200 C 366.180 265.200,366.000 264.906,366.000 264.547 C 366.000 264.188,365.684 263.603,365.297 263.247 C 364.911 262.891,364.340 262.105,364.030 261.500 C 363.719 260.895,363.315 260.400,363.132 260.400 C 362.950 260.400,362.800 260.040,362.800 259.600 C 362.800 259.160,362.620 258.800,362.400 258.800 C 362.180 258.800,362.000 258.558,362.000 258.262 C 362.000 257.966,361.640 257.398,361.200 257.000 C 360.760 256.602,360.400 255.987,360.400 255.634 C 360.400 255.281,360.040 254.768,359.600 254.493 C 359.160 254.218,358.800 253.646,358.800 253.221 C 358.800 252.797,358.260 251.858,357.600 251.136 C 356.940 250.413,356.400 249.592,356.400 249.311 C 356.400 249.030,356.223 248.800,356.008 248.800 C 355.792 248.800,355.502 248.350,355.364 247.800 C 355.226 247.250,354.953 246.800,354.757 246.800 C 354.560 246.800,354.400 246.393,354.400 245.896 C 354.400 245.399,354.040 244.768,353.600 244.493 C 353.160 244.218,352.800 243.747,352.800 243.446 C 352.800 243.144,352.534 242.677,352.208 242.407 C 351.480 241.802,350.400 239.691,350.400 238.872 C 350.400 238.539,350.289 238.378,350.152 238.514 C 349.819 238.847,348.800 237.794,348.800 237.117 C 348.800 236.820,348.440 236.317,348.000 236.000 C 347.560 235.683,347.200 235.191,347.200 234.906 C 347.200 234.213,346.362 232.759,345.500 231.957 C 345.115 231.599,344.800 231.052,344.800 230.741 C 344.800 230.431,344.440 229.917,344.000 229.600 C 343.560 229.283,343.200 228.703,343.200 228.312 C 343.200 227.920,343.020 227.600,342.800 227.600 C 342.580 227.600,342.400 227.259,342.400 226.843 C 342.400 226.426,342.130 225.982,341.800 225.855 C 341.470 225.729,341.200 225.299,341.200 224.901 C 341.200 224.503,340.840 223.870,340.400 223.493 C 339.960 223.116,339.600 222.536,339.600 222.204 C 339.600 221.872,339.420 221.600,339.200 221.600 C 338.980 221.600,338.800 221.246,338.800 220.814 C 338.800 220.382,338.440 219.835,338.000 219.600 C 337.560 219.365,337.200 218.942,337.200 218.661 C 337.200 218.381,336.840 217.764,336.400 217.292 C 335.960 216.820,335.600 216.156,335.600 215.817 C 335.600 215.478,335.420 215.200,335.200 215.200 C 334.980 215.200,334.800 214.880,334.800 214.488 C 334.800 214.097,334.440 213.517,334.000 213.200 C 333.560 212.883,333.200 212.322,333.200 211.954 C 333.200 211.587,332.939 211.185,332.619 211.063 C 332.300 210.940,331.678 210.050,331.239 209.085 C 330.799 208.120,330.161 207.099,329.820 206.816 C 329.479 206.534,329.200 206.056,329.200 205.754 C 329.200 205.453,328.840 204.982,328.400 204.707 C 327.960 204.432,327.600 203.978,327.600 203.698 C 327.600 203.012,326.758 201.555,325.900 200.757 C 325.515 200.399,325.200 199.812,325.200 199.453 C 325.200 199.094,325.042 198.800,324.849 198.800 C 324.655 198.800,324.273 198.260,324.000 197.600 C 323.727 196.940,323.326 196.400,323.109 196.400 C 322.892 196.400,322.821 196.123,322.950 195.785 C 323.082 195.442,322.936 195.074,322.621 194.953 C 322.310 194.833,321.873 194.210,321.649 193.568 C 321.425 192.926,321.074 192.400,320.869 192.400 C 320.665 192.400,320.273 191.860,320.000 191.200 C 319.727 190.540,319.364 190.000,319.195 190.000 C 319.025 190.000,318.774 189.550,318.636 189.000 C 318.498 188.450,318.208 188.000,317.992 188.000 C 317.777 188.000,317.600 187.680,317.600 187.288 C 317.600 186.897,317.240 186.317,316.800 186.000 C 316.360 185.683,316.000 185.103,316.000 184.712 C 316.000 184.320,315.820 184.000,315.600 184.000 C 315.380 184.000,315.200 183.683,315.200 183.296 C 315.200 182.909,314.840 182.368,314.400 182.093 C 313.960 181.818,313.600 181.274,313.600 180.885 C 313.600 180.495,313.240 179.917,312.800 179.600 C 312.360 179.283,312.000 178.703,312.000 178.312 C 312.000 177.920,311.820 177.600,311.600 177.600 C 311.380 177.600,311.200 177.389,311.200 177.131 C 311.200 176.874,310.901 176.333,310.536 175.929 C 309.796 175.111,309.229 174.167,308.060 171.800 C 307.364 170.391,306.898 169.724,305.213 167.723 C 304.992 167.461,304.338 166.246,303.759 165.023 C 303.180 163.800,302.547 162.800,302.353 162.800 C 302.159 162.800,302.000 162.552,302.000 162.249 C 302.000 161.946,301.721 161.466,301.380 161.184 C 301.039 160.901,300.401 159.880,299.961 158.915 C 299.522 157.950,298.900 157.060,298.581 156.937 C 298.261 156.815,298.000 156.413,298.000 156.046 C 298.000 155.678,297.640 155.117,297.200 154.800 C 296.760 154.483,296.400 153.903,296.400 153.512 C 296.400 153.120,296.220 152.800,296.000 152.800 C 295.780 152.800,295.600 152.480,295.600 152.088 C 295.600 151.697,295.240 151.117,294.800 150.800 C 294.360 150.483,294.000 149.943,294.000 149.600 C 294.000 149.257,293.640 148.717,293.200 148.400 C 292.760 148.083,292.400 147.503,292.400 147.112 C 292.400 146.720,292.220 146.400,292.000 146.400 C 291.780 146.400,291.600 146.143,291.600 145.829 C 291.600 145.514,291.375 145.013,291.100 144.714 C 290.825 144.416,290.297 143.638,289.927 142.986 C 287.575 138.840,287.037 138.000,286.736 138.000 C 286.551 138.000,286.400 137.764,286.400 137.475 C 286.400 137.187,286.040 136.564,285.600 136.092 C 285.160 135.620,284.800 134.956,284.800 134.617 C 284.800 134.278,284.620 134.000,284.400 134.000 C 284.180 134.000,284.000 133.764,284.000 133.475 C 284.000 133.187,283.640 132.564,283.200 132.092 C 282.760 131.620,282.400 131.068,282.400 130.866 C 282.400 130.663,282.121 130.266,281.780 129.984 C 281.439 129.701,280.818 128.718,280.400 127.800 C 279.982 126.882,279.361 125.899,279.020 125.616 C 278.679 125.334,278.400 124.894,278.400 124.639 C 278.400 124.385,278.040 123.917,277.600 123.600 C 277.160 123.283,276.800 122.791,276.800 122.506 C 276.800 121.918,276.043 120.495,275.300 119.687 C 275.025 119.388,274.800 118.984,274.800 118.790 C 274.800 118.595,274.350 117.986,273.800 117.436 C 273.250 116.886,272.800 116.239,272.800 115.998 C 272.800 115.047,271.452 112.851,269.692 110.936 C 269.193 110.393,268.889 109.780,269.016 109.574 C 269.143 109.368,269.057 109.200,268.824 109.200 C 268.591 109.200,268.400 108.883,268.400 108.496 C 268.400 108.109,268.040 107.568,267.600 107.293 C 267.160 107.018,266.800 106.474,266.800 106.085 C 266.800 105.695,266.440 105.117,266.000 104.800 C 265.560 104.483,265.200 103.903,265.200 103.512 C 265.200 103.120,265.020 102.800,264.800 102.800 C 264.580 102.800,264.400 102.483,264.400 102.096 C 264.400 101.709,264.040 101.168,263.600 100.893 C 263.160 100.618,262.800 100.047,262.800 99.624 C 262.800 99.200,262.440 98.740,262.000 98.600 C 261.489 98.438,261.200 97.995,261.200 97.373 C 261.200 96.838,261.020 96.400,260.800 96.400 C 260.580 96.400,260.400 96.083,260.400 95.696 C 260.400 95.309,260.040 94.768,259.600 94.493 C 259.160 94.218,258.800 93.635,258.800 93.197 C 258.800 92.758,258.623 92.400,258.408 92.400 C 258.192 92.400,257.902 91.950,257.764 91.400 C 257.626 90.850,257.250 90.400,256.927 90.400 C 256.591 90.400,256.397 90.110,256.472 89.720 C 256.544 89.346,256.243 88.652,255.802 88.177 C 254.336 86.601,253.600 85.445,253.600 84.719 C 253.600 84.323,253.420 84.000,253.200 84.000 C 252.980 84.000,252.800 83.683,252.800 83.296 C 252.800 82.909,252.440 82.368,252.000 82.093 C 251.560 81.818,251.200 81.353,251.200 81.059 C 251.200 80.765,250.840 80.198,250.400 79.800 C 249.960 79.402,249.600 78.733,249.600 78.314 C 249.600 77.896,249.420 77.664,249.200 77.800 C 248.980 77.936,248.800 77.716,248.800 77.312 C 248.800 76.907,248.440 76.317,248.000 76.000 C 247.560 75.683,247.200 75.143,247.200 74.800 C 247.200 74.457,246.840 73.917,246.400 73.600 C 245.960 73.283,245.600 72.703,245.600 72.312 C 245.600 71.920,245.420 71.600,245.200 71.600 C 244.980 71.600,244.800 71.280,244.800 70.888 C 244.800 70.497,244.440 69.917,244.000 69.600 C 243.560 69.283,243.200 68.769,243.200 68.459 C 243.200 68.148,242.869 67.603,242.464 67.247 C 242.059 66.891,241.596 66.068,241.436 65.418 C 241.275 64.768,240.796 63.993,240.372 63.695 C 239.947 63.398,239.600 62.799,239.600 62.365 C 239.600 61.930,239.353 61.480,239.050 61.364 C 238.748 61.248,238.168 60.398,237.762 59.476 C 237.356 58.554,236.703 57.509,236.312 57.153 C 235.920 56.797,235.600 56.278,235.600 56.000 C 235.600 55.722,235.285 55.201,234.900 54.843 C 234.038 54.041,233.200 52.587,233.200 51.894 C 233.200 51.609,232.840 51.117,232.400 50.800 C 231.960 50.483,231.600 50.027,231.600 49.787 C 231.600 49.547,231.279 49.002,230.887 48.575 C 230.495 48.149,229.851 47.114,229.457 46.276 C 229.062 45.438,228.483 44.653,228.170 44.533 C 227.856 44.413,227.600 44.056,227.600 43.740 C 227.600 43.425,227.240 42.780,226.800 42.308 C 226.360 41.836,226.000 41.213,226.000 40.925 C 226.000 40.636,225.820 40.400,225.600 40.400 C 225.380 40.400,225.200 40.040,225.200 39.600 C 225.200 39.160,225.042 38.800,224.849 38.800 C 224.655 38.800,224.273 38.260,224.000 37.600 C 223.727 36.940,223.357 36.400,223.178 36.400 C 222.835 36.400,222.186 34.810,222.321 34.300 C 222.364 34.135,222.220 34.000,222.000 34.000 C 221.780 34.000,221.600 33.640,221.600 33.200 C 221.600 32.760,221.333 32.400,221.008 32.400 C 220.682 32.400,220.306 31.963,220.172 31.429 C 220.038 30.896,219.584 30.148,219.164 29.767 C 218.744 29.387,218.400 28.834,218.400 28.538 C 218.400 28.242,218.220 28.000,218.000 28.000 C 217.780 28.000,217.600 27.764,217.600 27.475 C 217.600 27.187,217.240 26.564,216.800 26.092 C 216.360 25.620,216.000 24.996,216.000 24.705 C 216.000 24.414,215.640 23.917,215.200 23.600 C 214.760 23.283,214.400 22.703,214.400 22.312 C 214.400 21.920,214.220 21.600,214.000 21.600 C 213.780 21.600,213.600 21.364,213.600 21.075 C 213.600 20.787,213.240 20.164,212.800 19.692 C 212.360 19.220,212.000 18.686,212.000 18.505 C 212.000 18.324,211.640 17.917,211.200 17.600 C 210.760 17.283,210.400 16.613,210.400 16.112 C 210.400 15.610,210.263 15.200,210.095 15.200 C 209.776 15.200,209.173 14.176,208.382 12.292 C 208.125 11.682,207.561 10.993,207.127 10.761 C 206.682 10.523,206.433 10.090,206.556 9.769 C 206.677 9.456,206.601 9.200,206.387 9.200 C 206.174 9.200,206.000 8.939,206.000 8.620 C 206.000 8.301,205.754 7.896,205.454 7.720 C 204.935 7.416,204.472 6.686,202.574 3.184 C 200.973 0.230,199.959 -0.302,198.662 1.131 M270.166 161.232 C 286.025 161.249,298.775 161.354,298.500 161.465 C 298.225 161.576,298.000 161.856,298.000 162.086 C 298.000 162.317,297.628 162.829,297.174 163.223 C 296.719 163.617,296.366 164.088,296.389 164.270 C 296.462 164.841,295.095 167.600,294.739 167.600 C 294.553 167.600,294.397 167.825,294.393 168.100 C 294.389 168.375,293.929 169.034,293.370 169.564 C 292.812 170.094,292.254 171.030,292.131 171.643 C 292.009 172.257,291.569 173.066,291.154 173.442 C 290.739 173.817,290.400 174.284,290.400 174.479 C 290.400 174.674,290.040 175.220,289.600 175.692 C 289.160 176.164,288.800 176.787,288.800 177.075 C 288.800 177.364,288.620 177.600,288.400 177.600 C 288.180 177.600,288.000 177.920,288.000 178.312 C 288.000 178.703,287.640 179.283,287.200 179.600 C 286.760 179.917,286.400 180.457,286.400 180.800 C 286.400 181.143,286.040 181.683,285.600 182.000 C 285.160 182.317,284.800 182.897,284.800 183.288 C 284.800 183.680,284.620 184.000,284.400 184.000 C 284.180 184.000,284.000 184.345,284.000 184.767 C 284.000 185.188,283.865 185.593,283.700 185.667 C 283.085 185.940,280.911 189.059,280.191 190.700 C 279.781 191.635,279.323 192.400,279.172 192.400 C 279.021 192.400,278.673 192.940,278.400 193.600 C 278.127 194.260,277.655 194.800,277.351 194.800 C 277.048 194.800,276.800 195.064,276.800 195.386 C 276.800 196.199,275.524 198.800,275.126 198.800 C 274.947 198.800,274.800 199.094,274.800 199.453 C 274.800 199.812,274.485 200.399,274.100 200.757 C 273.238 201.559,272.400 203.013,272.400 203.706 C 272.400 203.991,272.040 204.483,271.600 204.800 C 271.160 205.117,270.800 205.607,270.800 205.888 C 270.800 206.170,270.641 206.400,270.447 206.400 C 270.253 206.400,269.619 207.371,269.038 208.559 C 268.457 209.746,267.716 210.938,267.391 211.208 C 267.066 211.477,266.800 211.863,266.800 212.066 C 266.800 212.268,266.440 212.820,266.000 213.292 C 265.560 213.764,265.200 214.387,265.200 214.675 C 265.200 214.964,265.020 215.200,264.800 215.200 C 264.580 215.200,264.400 215.560,264.400 216.000 C 264.400 216.440,264.241 216.800,264.046 216.800 C 263.851 216.800,263.387 217.441,263.015 218.224 C 262.644 219.007,262.095 219.742,261.795 219.857 C 261.496 219.972,261.348 220.320,261.467 220.630 C 261.586 220.940,261.395 221.304,261.044 221.439 C 260.692 221.573,260.503 221.843,260.624 222.039 C 260.744 222.234,260.397 222.839,259.853 223.384 C 259.308 223.929,258.746 224.740,258.604 225.187 C 258.462 225.634,258.178 226.000,257.973 226.000 C 257.768 226.000,257.600 226.360,257.600 226.800 C 257.600 227.240,257.420 227.600,257.200 227.600 C 256.980 227.600,256.800 227.920,256.800 228.312 C 256.800 228.703,256.440 229.283,256.000 229.600 C 255.560 229.917,255.200 230.431,255.200 230.741 C 255.200 231.052,254.885 231.599,254.500 231.957 C 253.600 232.795,252.800 234.222,252.800 234.991 C 252.800 235.322,252.440 235.818,252.000 236.093 C 251.560 236.368,251.200 236.866,251.200 237.200 C 251.200 237.534,250.840 238.032,250.400 238.307 C 249.960 238.582,249.600 239.075,249.600 239.403 C 249.600 239.732,249.420 240.000,249.200 240.000 C 248.980 240.000,248.821 240.135,248.847 240.300 C 249.004 241.295,248.700 241.978,248.000 242.200 C 247.560 242.340,247.200 242.802,247.200 243.227 C 247.200 243.652,247.009 244.000,246.776 244.000 C 246.543 244.000,246.464 244.180,246.600 244.400 C 246.736 244.620,246.567 244.800,246.224 244.800 C 245.881 244.800,245.630 244.935,245.666 245.100 C 245.828 245.841,244.999 247.864,244.271 248.503 C 243.422 249.249,242.940 250.007,241.645 252.635 C 241.202 253.534,240.561 254.501,240.220 254.784 C 239.879 255.066,239.600 255.544,239.600 255.846 C 239.600 256.147,239.240 256.618,238.800 256.893 C 238.360 257.168,238.000 257.709,238.000 258.096 C 238.000 258.483,237.820 258.800,237.600 258.800 C 237.380 258.800,237.200 259.120,237.200 259.512 C 237.200 259.903,236.840 260.483,236.400 260.800 C 235.960 261.117,235.600 261.657,235.600 262.000 C 235.600 262.343,235.240 262.883,234.800 263.200 C 234.360 263.517,234.000 264.097,234.000 264.488 C 234.000 264.880,233.820 265.200,233.600 265.200 C 233.380 265.200,233.200 265.500,233.200 265.866 C 233.200 266.233,232.931 266.818,232.602 267.166 C 231.323 268.522,230.118 270.267,229.420 271.775 C 228.734 273.258,228.443 273.702,227.352 274.933 C 226.681 275.690,225.600 277.886,225.600 278.492 C 225.600 278.784,225.240 279.283,224.800 279.600 C 224.360 279.917,224.000 280.454,224.000 280.792 C 224.000 281.131,223.640 281.632,223.200 281.907 C 222.760 282.182,222.400 282.765,222.400 283.203 C 222.400 283.642,222.220 284.000,222.000 284.000 C 221.780 284.000,221.600 284.283,221.600 284.629 C 221.600 285.374,220.603 286.469,220.248 286.114 C 220.111 285.978,220.000 286.235,220.000 286.684 C 220.000 287.134,219.721 287.734,219.380 288.016 C 219.039 288.299,218.418 289.282,218.000 290.200 C 217.582 291.118,216.961 292.101,216.620 292.384 C 216.279 292.666,216.000 293.124,216.000 293.400 C 216.000 293.676,215.721 294.134,215.380 294.416 C 215.039 294.699,214.401 295.720,213.961 296.685 C 213.522 297.650,212.900 298.540,212.581 298.663 C 212.261 298.785,212.000 299.187,212.000 299.554 C 212.000 299.922,211.656 300.471,211.236 300.774 C 210.816 301.076,210.566 301.566,210.679 301.862 C 210.793 302.158,210.677 302.400,210.422 302.400 C 210.167 302.400,209.770 302.940,209.540 303.600 C 209.310 304.260,208.959 304.800,208.761 304.800 C 208.562 304.800,208.400 305.120,208.400 305.512 C 208.400 305.903,208.040 306.483,207.600 306.800 C 207.160 307.117,206.800 307.697,206.800 308.088 C 206.800 308.480,206.620 308.800,206.400 308.800 C 206.180 308.800,206.000 309.120,206.000 309.512 C 206.000 309.903,205.640 310.483,205.200 310.800 C 204.760 311.117,204.400 311.657,204.400 312.000 C 204.400 312.343,204.040 312.883,203.600 313.200 C 203.160 313.517,202.800 314.097,202.800 314.488 C 202.800 314.880,202.620 315.200,202.400 315.200 C 202.180 315.200,202.000 315.520,202.000 315.912 C 202.000 316.303,201.640 316.883,201.200 317.200 C 200.760 317.517,200.400 318.007,200.400 318.288 C 200.400 318.570,200.220 318.800,200.000 318.800 C 199.780 318.800,199.600 318.654,199.600 318.475 C 199.600 318.297,199.285 317.793,198.900 317.355 C 197.953 316.279,197.200 314.922,197.200 314.294 C 197.200 314.009,196.840 313.517,196.400 313.200 C 195.960 312.883,195.600 312.343,195.600 312.000 C 195.600 311.657,195.240 311.117,194.800 310.800 C 194.360 310.483,194.000 309.903,194.000 309.512 C 194.000 309.120,193.820 308.800,193.600 308.800 C 193.380 308.800,193.200 308.480,193.200 308.088 C 193.200 307.697,192.840 307.117,192.400 306.800 C 191.960 306.483,191.600 305.914,191.600 305.535 C 191.600 305.157,191.425 304.739,191.211 304.607 C 190.997 304.474,190.513 303.699,190.137 302.883 C 189.761 302.067,188.811 300.590,188.026 299.600 C 186.356 297.492,185.600 296.213,185.600 295.494 C 185.600 295.209,185.240 294.717,184.800 294.400 C 184.360 294.083,184.000 293.569,184.000 293.259 C 184.000 292.948,183.676 292.403,183.280 292.047 C 182.883 291.691,182.257 290.750,181.887 289.955 C 181.517 289.160,180.941 288.283,180.607 288.006 C 180.273 287.729,180.000 287.256,180.000 286.954 C 180.000 286.653,179.640 286.182,179.200 285.907 C 178.760 285.632,178.400 285.091,178.400 284.704 C 178.400 284.317,178.220 284.000,178.000 284.000 C 177.780 284.000,177.600 283.642,177.600 283.203 C 177.600 282.765,177.240 282.182,176.800 281.907 C 176.360 281.632,176.000 281.173,176.000 280.887 C 176.000 280.601,175.815 280.149,175.589 279.883 C 174.877 279.045,171.273 273.073,170.408 271.300 C 169.953 270.365,169.413 269.600,169.209 269.600 C 169.005 269.600,168.539 268.970,168.173 268.200 C 167.808 267.430,167.349 266.800,167.154 266.800 C 166.959 266.800,166.800 266.440,166.800 266.000 C 166.800 265.560,166.620 265.200,166.400 265.200 C 166.180 265.200,166.000 264.906,166.000 264.547 C 166.000 264.188,165.684 263.603,165.297 263.247 C 164.911 262.891,164.340 262.105,164.030 261.500 C 163.719 260.895,163.315 260.400,163.132 260.400 C 162.950 260.400,162.800 260.040,162.800 259.600 C 162.800 259.160,162.620 258.800,162.400 258.800 C 162.180 258.800,162.000 258.558,162.000 258.262 C 162.000 257.966,161.640 257.398,161.200 257.000 C 160.760 256.602,160.400 255.987,160.400 255.634 C 160.400 255.281,160.040 254.768,159.600 254.493 C 159.160 254.218,158.800 253.646,158.800 253.221 C 158.800 252.797,158.260 251.858,157.600 251.136 C 156.940 250.413,156.400 249.592,156.400 249.311 C 156.400 249.030,156.223 248.800,156.008 248.800 C 155.792 248.800,155.502 248.350,155.364 247.800 C 155.226 247.250,154.953 246.800,154.757 246.800 C 154.560 246.800,154.400 246.393,154.400 245.896 C 154.400 245.399,154.040 244.768,153.600 244.493 C 153.160 244.218,152.800 243.747,152.800 243.446 C 152.800 243.144,152.534 242.677,152.208 242.407 C 151.480 241.802,150.400 239.691,150.400 238.872 C 150.400 238.539,150.289 238.378,150.152 238.514 C 149.819 238.847,148.800 237.794,148.800 237.117 C 148.800 236.820,148.440 236.317,148.000 236.000 C 147.560 235.683,147.200 235.191,147.200 234.906 C 147.200 234.213,146.362 232.759,145.500 231.957 C 145.115 231.599,144.800 231.052,144.800 230.741 C 144.800 230.431,144.440 229.917,144.000 229.600 C 143.560 229.283,143.200 228.703,143.200 228.312 C 143.200 227.920,143.020 227.600,142.800 227.600 C 142.580 227.600,142.400 227.259,142.400 226.843 C 142.400 226.426,142.130 225.982,141.800 225.855 C 141.470 225.729,141.200 225.299,141.200 224.901 C 141.200 224.503,140.840 223.870,140.400 223.493 C 139.960 223.116,139.600 222.536,139.600 222.204 C 139.600 221.872,139.420 221.600,139.200 221.600 C 138.980 221.600,138.800 221.246,138.800 220.814 C 138.800 220.382,138.440 219.835,138.000 219.600 C 137.560 219.365,137.200 218.942,137.200 218.661 C 137.200 218.381,136.840 217.764,136.400 217.292 C 135.960 216.820,135.600 216.156,135.600 215.817 C 135.600 215.478,135.420 215.200,135.200 215.200 C 134.980 215.200,134.800 214.880,134.800 214.488 C 134.800 214.097,134.440 213.517,134.000 213.200 C 133.560 212.883,133.200 212.322,133.200 211.954 C 133.200 211.587,132.939 211.185,132.619 211.063 C 132.300 210.940,131.678 210.050,131.239 209.085 C 130.799 208.120,130.161 207.099,129.820 206.816 C 129.479 206.534,129.200 206.056,129.200 205.754 C 129.200 205.453,128.840 204.982,128.400 204.707 C 127.960 204.432,127.600 203.978,127.600 203.698 C 127.600 203.012,126.758 201.555,125.900 200.757 C 125.515 200.399,125.200 199.812,125.200 199.453 C 125.200 199.094,125.042 198.800,124.849 198.800 C 124.655 198.800,124.273 198.260,124.000 197.600 C 123.727 196.940,123.326 196.400,123.109 196.400 C 122.892 196.400,122.821 196.123,122.950 195.785 C 123.082 195.442,122.936 195.074,122.621 194.953 C 122.310 194.833,121.873 194.210,121.649 193.568 C 121.425 192.926,121.074 192.400,120.869 192.400 C 120.665 192.400,120.273 191.860,120.000 191.200 C 119.727 190.540,119.364 190.000,119.195 190.000 C 119.025 190.000,118.774 189.550,118.636 189.000 C 118.498 188.450,118.208 188.000,117.992 188.000 C 117.777 188.000,117.600 187.680,117.600 187.288 C 117.600 186.897,117.240 186.317,116.800 186.000 C 116.360 185.683,116.000 185.103,116.000 184.712 C 116.000 184.320,115.820 184.000,115.600 184.000 C 115.380 184.000,115.200 183.683,115.200 183.296 C 115.200 182.909,114.840 182.368,114.400 182.093 C 113.960 181.818,113.600 181.274,113.600 180.885 C 113.600 180.495,113.240 179.917,112.800 179.600 C 112.360 179.283,112.000 178.703,112.000 178.312 C 112.000 177.920,111.820 177.600,111.600 177.600 C 111.380 177.600,111.200 177.389,111.200 177.131 C 111.200 176.874,110.901 176.333,110.536 175.929 C 109.796 175.111,109.229 174.167,108.060 171.800 C 107.364 170.391,106.898 169.724,105.213 167.723 C 104.992 167.461,104.338 166.246,103.759 165.023 C 103.180 163.800,102.568 162.800,102.400 162.800 C 102.231 162.800,101.999 162.441,101.885 162.002 C 101.650 161.104,140.775 160.766,210.166 161.066 C 227.307 161.139,254.307 161.214,270.166 161.232 " stroke="none" fill="#049424" fill-rule="evenodd"></path><path id="path1" d="M178.900 161.065 C 178.513 161.221,178.400 164.434,178.400 175.233 L 178.400 189.200 199.600 189.200 L 220.800 189.200 220.800 175.250 L 220.800 161.300 219.550 161.050 C 218.077 160.755,179.632 160.769,178.900 161.065 M79.200 335.200 L 79.200 349.200 100.400 349.200 L 121.600 349.200 121.600 335.200 L 121.600 321.200 100.400 321.200 L 79.200 321.200 79.200 335.200 M279.200 335.200 L 279.200 349.200 300.400 349.200 L 321.600 349.200 321.600 335.200 L 321.600 321.200 300.400 321.200 L 279.200 321.200 279.200 335.200 " stroke="none" fill="#9c5c04" fill-rule="evenodd"></path><path id="path2" d="M159.714 63.080 C 159.227 63.586,158.974 64.000,159.152 64.000 C 159.542 64.000,160.998 62.445,160.764 62.277 C 160.674 62.213,160.201 62.574,159.714 63.080 M111.200 140.767 C 111.200 141.188,111.016 141.625,110.790 141.737 C 110.565 141.849,110.592 141.899,110.852 141.849 C 111.440 141.736,112.131 140.000,111.587 140.000 C 111.374 140.000,111.200 140.345,111.200 140.767 " stroke="none" fill="#049814" fill-rule="evenodd"></path><path id="path3" d="M89.900 321.100 C 95.675 321.162,105.125 321.162,110.900 321.100 C 116.675 321.037,111.950 320.986,100.400 320.986 C 88.850 320.986,84.125 321.037,89.900 321.100 M289.900 321.100 C 295.675 321.162,305.125 321.162,310.900 321.100 C 316.675 321.037,311.950 320.986,300.400 320.986 C 288.850 320.986,284.125 321.037,289.900 321.100 " stroke="none" fill="#2c7814" fill-rule="evenodd"></path><path id="path4" d="M159.714 63.080 C 159.227 63.586,158.974 64.000,159.152 64.000 C 159.542 64.000,160.998 62.445,160.764 62.277 C 160.674 62.213,160.201 62.574,159.714 63.080 M111.200 140.767 C 111.200 141.188,111.016 141.625,110.790 141.737 C 110.565 141.849,110.592 141.899,110.852 141.849 C 111.440 141.736,112.131 140.000,111.587 140.000 C 111.374 140.000,111.200 140.345,111.200 140.767 " stroke="none" fill="#049814" fill-rule="evenodd"></path></g></svg>